<svg xmlns="http://www.w3.org/2000/svg" width="1600" height="1606"><path d="M797.063 277.875c2.439.01 4.878.02 7.318.027 5.873.022 11.746.056 17.619.098-.629 7.604-1.782 15.053-3.117 22.562l-.646 3.685c-.58 3.303-1.163 6.606-1.748 9.91-.613 3.466-1.222 6.934-1.832 10.401-1.023 5.813-2.05 11.625-3.077 17.437-1.188 6.719-2.372 13.438-3.553 20.157-1.139 6.477-2.28 12.954-3.423 19.43-.486 2.752-.97 5.505-1.455 8.257-.674 3.835-1.353 7.67-2.032 11.505-.2 1.142-.4 2.284-.608 3.461l-.56 3.156-.485 2.746C799 413 799 413 798 416l-3.348.196C731.582 419.964 673.697 433.264 617 462l-2.397 1.211C595.022 473.25 576.024 486.083 559 500l-2.82 2.246c-5.737 4.61-11.224 9.444-16.637 14.43a233.306 233.306 0 0 1-6.418 5.636C524.452 529.86 516.419 538.23 509 547l-2.594 2.93c-66.278 75.186-99.79 177.612-93.526 277.263 2.377 36.799 10.167 72.375 22.272 107.174C436 937 436 937 436 939c10.444-5.692 20.636-11.77 30.787-17.966A2475.777 2475.777 0 0 1 496 903.5a2945.838 2945.838 0 0 0 33.396-20.07c8.382-5.106 16.81-10.128 25.257-15.126 4.021-2.38 8.037-4.77 12.053-7.159 2.749-1.635 5.5-3.266 8.257-4.887a819.703 819.703 0 0 0 7.037-4.196l1.94-1.122c1.862-1.089 1.862-1.089 4.06-2.94 0-4.267-.828-6.62-2.37-10.57a1127.96 1127.96 0 0 0-2.414-6.213c-1.193-3.048-2.372-6.102-3.552-9.155l-1.86-4.806c-3.25-8.384-6.421-16.797-9.585-25.213l-1.68-4.46-4.193-11.146a64128.3 64128.3 0 0 0-9.149-24.316l-.733-1.948c-.7-1.861-1.399-3.723-2.097-5.586a445.078 445.078 0 0 0-2.834-7.243l-1.39-3.48-1.25-3.065c-.908-2.846-1.253-4.84-.893-7.799a61.754 61.754 0 0 1 5.66-6.113l1.766-1.737a790.805 790.805 0 0 1 5.636-5.462 3413.5 3413.5 0 0 0 7.348-7.176l1.806-1.76c2.859-2.802 5.631-5.61 8.218-8.67 6.34-7.495 13.634-14.2 20.605-21.1 8.481-8.255 8.481-8.255 16.461-16.982 6.32-7.465 13.594-14.144 20.54-21.019 9.289-9.15 9.289-9.15 18.023-18.82 5.818-6.488 12.211-12.48 18.403-18.607 1.29-1.278 2.58-2.558 3.868-3.838a905.87 905.87 0 0 1 3.757-3.71c3.096-3.068 5.78-6.106 8.315-9.662 3.03-3.535 6.423-4.357 10.81-5.332l2.146-.505c2.21-.516 4.423-1.013 6.638-1.507l2.01-.455c4.7-1.061 9.409-2.078 14.12-3.088l4.618-.997c4.128-.891 8.256-1.779 12.384-2.665 3.464-.745 6.928-1.49 10.393-2.237 8.175-1.761 16.351-3.52 24.528-5.276a36365.27 36365.27 0 0 0 25.207-5.426c7.251-1.563 14.503-3.124 21.754-4.683 4.316-.928 8.63-1.857 12.945-2.787 4.055-.874 8.11-1.746 12.165-2.615a3406.9 3406.9 0 0 0 4.436-.956c6.73-1.453 13.466-2.872 20.237-4.123l2.848-.53C874 535 874 535 876.859 536.64l1.891 2.609 2.188 2.852L883 545a600.442 600.442 0 0 0 3.75 4.625l1.973 2.5c2.792 3.525 5.626 7.013 8.465 10.5l1.676 2.062c2.832 3.485 5.669 6.966 8.511 10.442 2.706 3.31 5.394 6.635 8.076 9.965a496.06 496.06 0 0 0 4.658 5.625c.944 1.155 1.887 2.312 2.828 3.468l2.528 3.043C927 600 927 600 926.547 602.202c-2.271 4.108-5.431 7.065-8.763 10.339l-2.252 2.249c-2.458 2.45-4.927 4.89-7.395 7.331a7966.08 7966.08 0 0 1-18.677 18.567 16552.421 16552.421 0 0 0-21.645 21.52 6057.802 6057.802 0 0 1-7.56 7.5l-4.65 4.622c-.7.69-1.399 1.381-2.119 2.093-2.888 2.875-5.647 5.715-8.156 8.929-2.428 2.76-3.756 3.64-7.214 4.687l-2.868.9c-1.018.298-2.035.595-3.084.9l-3.243 1.001c-3.427 1.052-6.86 2.075-10.296 3.097-2.24.683-4.48 1.367-6.719 2.053-2.226.68-4.453 1.358-6.68 2.037l-3.347 1.026c-5.383 1.636-10.765 3.196-16.216 4.59-12.83 3.375-20.922 7.304-29.663 17.294-.988 1.06-1.98 2.118-2.977 3.17-3.958 4.22-7.753 8.574-11.527 12.96-4.545 5.233-9.513 10.057-14.433 14.933l-2.94 2.926c-2.372 2.36-4.746 4.718-7.123 7.074 1.975 7.684 4.35 15.134 7.055 22.59l1.162 3.23c.806 2.238 1.615 4.476 2.425 6.713 1.228 3.39 2.448 6.783 3.667 10.176l2.37 6.568 1.087 3.022a464.341 464.341 0 0 0 5.797 15.17l1.172 2.907c2.011 4.172 4.862 7.22 8.14 10.437l1.777 1.826A437.965 437.965 0 0 0 757 852c7.398 7.331 7.398 7.331 10.375 10.875 2.591 3.01 5.298 5.836 8.125 8.625a150.362 150.362 0 0 1 9.602 10.383L787 884l1.399 1.789c3.175 3.843 3.175 3.843 7.682 5.456 2.41-.368 4.626-.963 6.954-1.686l2.617-.703c2.817-.766 5.612-1.59 8.41-2.418 1.941-.55 3.883-1.095 5.826-1.637a1247.45 1247.45 0 0 0 8.779-2.482c5.727-1.638 11.443-3.068 17.278-4.26 15.926-3.346 25.705-7.658 35.484-20.959 4.37-5.842 9.478-11.14 14.446-16.475a1057.86 1057.86 0 0 0 10.813-11.813l2.056-2.251c2.253-2.492 2.253-2.492 4.112-5.023 6.173-7.83 13.095-10.383 22.332-13.089 1.492-.463 2.983-.93 4.473-1.4 3.955-1.237 7.921-2.434 11.891-3.624 4.094-1.234 8.177-2.503 12.261-3.77 5.661-1.754 11.325-3.496 16.994-5.223 8.335-2.54 16.642-5.151 24.927-7.85l2.962-.961c3.531-1.147 7.063-2.295 10.59-3.455 2.292-.753 4.588-1.492 6.886-2.229l3.753-1.222c4.656-1.083 4.656-1.083 7.075.285 1.577 2.572 1.577 2.572 3.11 6.05.283.635.568 1.268.86 1.921.94 2.108 1.86 4.224 2.78 6.341.653 1.474 1.307 2.948 1.962 4.42a2180.87 2180.87 0 0 1 4.136 9.375 2069.13 2069.13 0 0 0 6.59 14.815l4.312 9.64 1.041 2.33a3508.91 3508.91 0 0 1 2.943 6.612l.87 1.944c1.974 4.459 3.716 8.974 5.396 13.552l-1.142 1.386a6538.398 6538.398 0 0 0-30.053 36.7 5658.019 5658.019 0 0 1-15.899 19.469A5044.348 5044.348 0 0 0 1010.5 930a6110.105 6110.105 0 0 1-17.594 21.555A5044.348 5044.348 0 0 0 979.5 968a4960.836 4960.836 0 0 1-17.945 21.977l-2.43 2.96-2.18 2.653c-1.917 2.294-1.917 2.294-3.28 4.447-1.983 2.338-3.337 2.87-6.242 3.784l-2.846.917-3.116.957-3.279 1.044c-3.598 1.142-7.202 2.264-10.807 3.386-2.55.805-5.101 1.612-7.651 2.42-5.301 1.677-10.605 3.345-15.91 5.006a6362.814 6362.814 0 0 0-21.54 6.793c-9.181 2.909-18.365 5.807-27.551 8.699-11.063 3.483-22.12 6.984-33.176 10.491-5.209 1.653-10.419 3.303-15.628 4.953-4.265 1.351-8.53 2.704-12.794 4.06a8590.211 8590.211 0 0 1-12.068 3.826c-1.483.47-2.966.94-4.448 1.413-8.471 2.699-16.948 5.19-25.609 7.214l-15.742-17.492a5112.962 5112.962 0 0 0-4.578-5.078c-3.38-3.746-6.749-7.495-10.055-11.305-3.454-3.968-7.015-7.833-10.578-11.703a471.304 471.304 0 0 1-9.172-10.297c-2.42-2.743-4.897-5.434-7.375-8.125a536.233 536.233 0 0 1-10.691-11.941c-3.075-3.5-6.23-6.928-9.38-10.36-2.725-3.028-5.318-6.15-7.859-9.336-1.727-1.8-1.727-1.8-5.57-1.363-2.784 1.298-2.784 1.298-5.75 3.121l-1.701 1.002a920.27 920.27 0 0 0-5.549 3.314l-3.925 2.33c-9.821 5.833-19.587 11.763-29.339 17.713-8.871 5.41-17.794 10.728-26.736 16.02a2893.916 2893.916 0 0 0-33.365 20.053 1760.789 1760.789 0 0 1-21.66 12.985 4666.858 4666.858 0 0 1-10.846 6.396l-3.918 2.312-1.82 1.065c-2.397 1.417-4.413 2.71-6.391 4.689 14.768 16.124 14.768 16.124 30.715 31.05 1.758 1.5 3.497 3.023 5.226 4.555C565.38 1112.616 588.187 1127.84 612 1141l2.61 1.453c46.245 25.534 98.714 41.314 151.39 45.547l2.911.265c12.829 1.034 25.666.845 38.527.797A10113.978 10113.978 0 0 0 832 1189a2008.516 2008.516 0 0 1 11.37 40.95l1.471 5.508c1.276 4.778 2.55 9.557 3.824 14.336l4.593 17.214c1.232 4.613 2.463 9.226 3.693 13.84a5474.198 5474.198 0 0 0 9.148 33.939l.775 2.854.666 2.434C868 1322 868 1322 868 1324c-4.041.485-8.083.962-12.125 1.438l-3.402.408-3.418.4-3.079.365a331.55 331.55 0 0 1-31.054 1.592l-3.63.021c-3.848.018-7.695.024-11.542.026l-3.993.002c-20.427-.008-40.497-.545-60.757-3.252l-1.998-.264C639.902 1312.342 551.385 1276.573 467 1211l-2.664-2.137a326.664 326.664 0 0 1-16.535-14.308c-1.458-1.33-2.92-2.656-4.423-3.934-6.469-5.51-12.446-11.503-18.45-17.508a1737.76 1737.76 0 0 0-5.574-5.535c-6.922-6.89-13.282-13.921-19.354-21.578-1.59-1.85-3.222-3.642-4.875-5.438-2.539-2.761-4.924-5.523-7.125-8.562-4.103 1.5-7.77 3.513-11.504 5.754l-1.899 1.128a2633.5 2633.5 0 0 0-6.16 3.68 3728.295 3728.295 0 0 0-34.838 21.011c-8.97 5.464-17.996 10.83-27.037 16.177-12.283 7.266-24.476 14.659-36.562 22.25 2.558 4.632 5.77 8.561 9.125 12.625l3.535 4.309 1.739 2.112a599.254 599.254 0 0 1 4.035 4.99c4.503 5.61 9.223 10.954 14.142 16.2a270.144 270.144 0 0 1 7.662 8.51c3.504 4.01 7.174 7.812 10.946 11.57l1.997 2c1.383 1.384 2.767 2.767 4.152 4.148 2.1 2.093 4.193 4.192 6.286 6.292l4.065 4.06 1.863 1.87c3.777 3.757 7.674 7.327 11.708 10.807 2.223 1.92 4.39 3.9 6.558 5.882 4.264 3.844 8.636 7.52 13.101 11.129a743.653 743.653 0 0 1 6.672 5.46c34.207 28.246 72.13 52.502 111.414 73.036l3.345 1.749c76.725 39.834 160.8 63.574 257.655 72.251l3.71.288c13.648.944 27.303.911 40.977.9l3.85-.002c18.576-.024 36.97-.287 55.463-2.186l3.847-.375c46.186-4.546 91.927-13.498 136.153-27.625l3.605-1.144c47.5-15.164 93.49-35.388 136.395-60.856l2.607-1.547c26.843-16.053 52.565-34.067 76.652-54.016 2.523-2.082 5.072-4.131 7.616-6.187 4.389-3.593 8.62-7.333 12.813-11.152a301.428 301.428 0 0 1 6-5.285c10.123-8.854 19.79-18.196 29.312-27.688l2.39-2.376c4.172-4.183 8.179-8.45 12.033-12.927 2.255-2.605 4.603-5.113 6.952-7.634a272.521 272.521 0 0 0 12.133-14.106c1.87-2.314 3.76-4.604 5.672-6.883 8.724-10.42 16.92-21.142 24.82-32.199l1.962-2.744c9.565-13.432 18.573-27.107 27.038-41.256l1.678-2.782c9.848-16.37 18.698-33.182 27.322-50.218 7.611 1.943 14.943 4.316 22.293 7.078l3.264 1.212c3.545 1.316 7.088 2.638 10.63 3.96a10608.34 10608.34 0 0 0 17.268 6.404c10.784 3.99 21.6 7.888 32.432 11.744l4.442 1.584c6.483 2.311 12.968 4.617 19.458 6.905 2.68.947 5.357 1.9 8.034 2.855 1.843.655 3.69 1.302 5.537 1.948l3.331 1.191 2.904 1.026c2.384 1.083 3.72 2.119 5.407 4.093-25.008 53.942-56.361 105.167-93 152l-2.676 3.453c-4.98 6.409-10.07 12.7-15.346 18.868a390.99 390.99 0 0 0-8.29 10.054c-5.246 6.447-10.965 12.434-16.674 18.468-2.355 2.522-4.663 5.083-6.979 7.641-6.347 6.967-12.996 13.628-19.67 20.281a3068.207 3068.207 0 0 0-6.18 6.186c-1.336 1.336-2.672 2.671-4.01 4.006l-1.824 1.831c-3.728 3.708-7.576 7.225-11.558 10.658-2.594 2.249-5.093 4.59-7.605 6.929-4.648 4.294-9.432 8.36-14.364 12.328a345.211 345.211 0 0 0-7.356 6.179c-7.482 6.425-15.255 12.426-23.132 18.357-2.44 1.839-4.872 3.686-7.305 5.534-10.158 7.697-20.418 15.17-31.031 22.227l-2.605 1.734c-13.252 8.792-26.666 17.24-40.395 25.266l-2.472 1.455c-14.886 8.739-30.114 16.78-45.528 24.545l-1.82.919c-72.807 36.705-151.81 61.568-304.18 82.081l-3.752.281c-16.216 1.138-32.5.965-48.748.969l-2.424.001c-25.804.008-51.397-.496-77.076-3.251l-2.454-.257c-79.267-8.334-156.632-28.204-450.292-197.704a382.245 382.245 0 0 0-6.129-5.414c-10.953-9.58-21.327-19.668-31.6-29.969a3991.26 3991.26 0 0 0-7.054-7.049l-4.553-4.556-2.096-2.09a228.235 228.235 0 0 1-11.298-12.2c-2.237-2.585-4.569-5.072-6.899-7.573-4.314-4.671-8.407-9.475-12.395-14.43-2.287-2.83-4.63-5.605-6.98-8.383-5.805-6.95-11.256-14.156-16.723-21.372a462.809 462.809 0 0 0-4.086-5.276c-18.665-23.846-35.26-49.545-50.441-75.727l-1.544-2.655c-8.99-15.52-17.38-31.332-25.456-47.345l-1.542-3.051c-36.938-73.62-60.45-154.087-76.895-265.824l-.255-2.22c-.236-2.09-.46-4.18-.68-6.272l-.372-3.535C-.099 871.41 0 865.7 0 860h136l5 39c9.95 63.192 27.29 126.58 56 184l2.063-1.259c13.93-8.497 27.895-16.93 41.937-25.241a3095.116 3095.116 0 0 0 33.501-20.119 4600.53 4600.53 0 0 1 27.249-16.444l2.033-1.218c3.738-2.24 7.477-4.48 11.217-6.719l-1.16-3.09c-25.139-66.93-41.054-133.484-41.09-205.16l-.002-3.695c.018-20.18.74-40.03 3.252-60.055l.25-2.027c3.957-31.908 10.828-63.385 20.75-93.973l1.116-3.467C310.912 601.138 328.052 563.163 350 528l1.722-2.794c7.138-11.572 14.599-22.73 22.94-33.47 2.047-2.655 4.031-5.354 6.026-8.048 6.081-8.099 12.564-15.852 19.125-23.563l1.323-1.564c9.012-10.525 18.626-20.49 28.438-30.266 1.693-1.687 3.38-3.38 5.067-5.072 5.617-5.621 11.278-11.1 17.359-16.223 1.01-.877 2.019-1.754 3.027-2.633 8.054-6.897 16.374-13.38 24.844-19.757a747.43 747.43 0 0 0 6.067-4.645C503.007 366.852 521.335 355.68 540 345l2.694-1.543c57.118-32.472 121.404-52.718 186.369-61.644 1.12-.156 2.242-.31 3.397-.47 21.527-2.796 42.91-3.627 64.602-3.468Z" fill="#FEFEFE"/><path d="m878 6 2.486.264c78.716 8.412 156.496 27.448 380.457 142.249 2.194 1.586 4.398 3.158 6.604 4.73 14.322 10.227 28.01 21.144 41.636 32.276 1.624 1.324 3.255 2.64 4.887 3.954 5.642 4.556 11.058 9.297 16.395 14.207a269.382 269.382 0 0 0 6.285 5.57c11.531 10.05 22.447 20.782 33.242 31.611 2.031 2.037 4.068 4.069 6.106 6.1l3.965 3.969 1.802 1.796c3.68 3.7 7.17 7.525 10.577 11.478 2.25 2.594 4.592 5.095 6.933 7.608 4.294 4.648 8.36 9.432 12.328 14.364a345.752 345.752 0 0 0 6.18 7.357c6.484 7.55 12.534 15.402 18.52 23.351 1.501 1.99 3.012 3.97 4.527 5.948 22.42 29.41 42.281 60.76 60.07 93.168l1.538 2.787C1521.891 453.928 1538.4 490.266 1552 528l.762 2.108c13.546 37.506 24.45 75.774 32.238 114.892l.464 2.332a843.242 843.242 0 0 1 11.279 74.287c.243 2.253.499 4.505.757 6.757 5.595 49.6 5.452 102.82-.247 152.4-.268 2.355-.522 4.711-.773 7.069-4.466 41.47-11.566 83.131-23.48 123.155-4.085-.59-7.772-1.493-11.652-2.892l-3.33-1.192c-1.188-.43-2.376-.862-3.6-1.307a4518.088 4518.088 0 0 1-14.095-5.086c-2.854-1.033-5.71-2.063-8.566-3.093a10228.315 10228.315 0 0 1-60.82-22.18l-3.698-1.36c-3.447-1.268-6.892-2.54-10.337-3.812l-3.053-1.124c-5.014-1.857-9.958-3.793-14.849-5.954a147.698 147.698 0 0 1 2.672-15.934l1.007-4.603.53-2.42c15.158-69.543 18.647-140.892 10.791-211.606l-.253-2.283c-.952-8.458-2.171-16.787-3.747-25.154a809053.2 809053.2 0 0 0-48.998 13.101l-11.346 3.034-8.524 2.279c-9.689 2.59-19.375 5.189-29.058 7.802l-8.552 2.305c-2.696.727-5.39 1.458-8.086 2.188l-4.874 1.313-2.247.612C1323.228 735 1323.228 735 1321 735l.26 2.225c.397 3.424.787 6.85 1.178 10.275l.408 3.496c1.938 17.114 2.359 34.047 2.341 51.254l-.001 3.36c-.025 16.877-.326 33.6-2.186 50.39l-.375 3.47C1312.57 949.528 1279.641 1036.096 1203 1140l-1.506 1.807c-11.16 13.34-23.095 25.874-35.369 38.193l-2.666 2.68A275.014 275.014 0 0 1 1148 1197a1306.877 1306.877 0 0 0-3.465 3.07c-39.981 35.285-86.413 63.39-134.91 85.305l-1.907.885c-3.4 1.49-5.203 1.827-8.718.74l-.926-3.46-8.778-32.772-5.388-20.12c-1.16-4.331-2.32-8.663-3.482-12.995-.857-3.202-1.713-6.403-2.568-9.605-2.537-9.479-5.094-18.95-7.75-28.396l-1.302-4.664c-.783-2.8-1.579-5.595-2.384-8.389-.34-1.21-.678-2.422-1.028-3.67l-.897-3.134c-.53-2.98-.39-4.916.503-7.795 1.553-1.248 1.553-1.248 3.594-2.148l2.334-1.083 2.572-1.144c47.786-22.605 92.85-59.01 125.5-100.625 1.042-1.29 2.085-2.579 3.129-3.867 17.765-22.145 32.677-46.624 44.944-72.215a405.758 405.758 0 0 1 2.841-5.734c21.997-44.402 35.074-97.277 35.29-146.868l.02-3.289c.018-3.488.024-6.976.026-10.465l.002-3.61c-.016-17.515-.456-34.628-3.252-51.952l-.52-3.406c-5.449-35.216-15.388-69.743-30.338-102.116-1.05-2.28-2.075-4.57-3.091-6.865-15.377-34.256-37.543-65.44-62.77-93.11a464.474 464.474 0 0 1-4.687-5.226c-11.149-12.475-23.407-23.98-36.594-34.277a6631.916 6631.916 0 0 1-4.04-3.23c-14.856-11.812-30.479-22.358-46.96-31.77l-2.404-1.374c-17.492-9.925-35.556-18.983-54.498-25.821C934 441 934 441 933 440c-.472-6.71.922-13.146 2.111-19.728l.68-3.846c.612-3.463 1.232-6.925 1.853-10.387.65-3.624 1.291-7.249 1.934-10.874 1.217-6.857 2.44-13.713 3.666-20.569 1.395-7.808 2.784-15.617 4.171-23.427 2.854-16.058 5.717-32.114 8.585-48.169 3.752-1.25 5.019-.566 8.723.703l3.529 1.204c1.27.447 2.54.894 3.81 1.343l1.96.685C1033.408 327.748 1088.854 359.521 1137 400l1.579 1.321c13.404 11.245 26.029 23.207 38.421 35.554l2.68 2.666A275.014 275.014 0 0 1 1194 455c1.021 1.157 2.045 2.312 3.07 3.465 36.632 41.508 66.709 90.45 87.93 141.535 9.12-1.613 18.02-4.045 26.957-6.438l5.005-1.332c4.397-1.17 8.793-2.344 13.19-3.52 3.476-.928 6.953-1.854 10.43-2.78 4.292-1.142 8.584-2.286 12.875-3.43l2.567-.684c9.561-2.55 19.116-5.122 28.661-7.734l5.166-1.41c3.247-.886 6.493-1.78 9.737-2.676l4.376-1.195 3.839-1.058C1411 567 1411 567 1415 567c-5.952-15.184-12.093-30.224-19-45l-1.35-2.904c-30.236-64.788-71.675-127.028-122.873-177.284-1.773-1.808-3.398-3.687-5.027-5.625-3.461-4.03-7.329-7.56-11.268-11.111-2.994-2.701-5.906-5.45-8.732-8.326-3.75-3.796-7.696-7.283-11.75-10.75l-3.125-2.719a524.187 524.187 0 0 0-22.962-18.793 823.943 823.943 0 0 1-6.093-4.797c-31.958-25.253-66.734-46.863-102.82-65.691l-3.127-1.632C1013.047 168.914 920.037 145.3 639 159l-2.015.494c-42.068 10.306-83.05 24.539-122.173 43.172a897.19 897.19 0 0 1-8.59 4.006c-12.921 6.01-25.323 12.712-37.652 19.851a541.793 541.793 0 0 1-8.995 5.026c-9.148 5.048-17.89 10.647-26.575 16.451l-2.588 1.728c-18.176 12.177-35.823 24.881-52.675 38.84-2.5 2.06-5.027 4.086-7.55 6.12-4.605 3.768-9.016 7.72-13.386 11.757a374.57 374.57 0 0 1-6.656 5.918c-13.731 11.98-27.531 24.6-39.317 38.528-1.99 2.295-4.05 4.512-6.125 6.732-5.021 5.375-9.831 10.843-14.437 16.584a321.051 321.051 0 0 1-6.197 7.374C277.317 389.433 271.12 397.648 265 406l-1.603 2.177C239.535 440.642 219.137 475.044 201 511l-1.48 2.928C180.84 551.15 166.873 590.851 156 631l-.948 3.47c-3.86 14.29-6.987 28.68-9.74 43.217l-.42 2.217C142.319 693.563 140.197 707.27 138 721H2c0-6.168.2-11.77 1.066-17.8l.346-2.49c.375-2.675.761-5.35 1.15-8.023l.405-2.803A846.252 846.252 0 0 1 15 634l.45-2.106C31.845 555.333 60.037 479.974 99 412l1.904-3.332c12.892-22.499 26.395-44.619 41.622-65.629 1.548-2.14 3.08-4.292 4.61-6.445 13.3-18.65 27.58-36.473 42.431-53.907a1116.98 1116.98 0 0 0 4.238-5.027 447.152 447.152 0 0 1 16.433-18.45l2.085-2.212c7.473-7.894 15.13-15.601 22.825-23.277 2.382-2.376 4.758-4.757 7.133-7.139l4.625-4.621 2.11-2.115a231.404 231.404 0 0 1 12.266-11.367c2.216-1.908 4.372-3.88 6.53-5.854 4.316-3.894 8.759-7.592 13.278-11.246a440.307 440.307 0 0 0 7.65-6.418 402.19 402.19 0 0 1 19.347-15.517c2.129-1.607 4.25-3.225 6.37-4.842C333.029 150.494 352.094 137.159 372 125l2.85-1.745c49.28-30.084 100.602-55.285 155.063-74.518 2.038-.72 4.075-1.444 6.112-2.169C585.245 29.138 636.344 17.366 688 10l2.084-.298a723.572 723.572 0 0 1 28.754-3.482c1.442-.147 2.883-.296 4.324-.448C773.992.427 827.19.5 878 6Z" fill="#fff"/></svg>