<?xml version="1.0" encoding="UTF-8"?>
<!DOCTYPE svg PUBLIC "-//W3C//DTD SVG 1.1//EN" "http://www.w3.org/Graphics/SVG/1.1/DTD/svg11.dtd">
<svg xmlns="http://www.w3.org/2000/svg" version="1.1" width="1000px" height="1000px" style="shape-rendering:geometricPrecision; text-rendering:geometricPrecision; image-rendering:optimizeQuality; fill-rule:evenodd; clip-rule:evenodd" xmlns:xlink="http://www.w3.org/1999/xlink">
<g><path style="opacity:0.989" fill="#000000" d="M -0.5,262.5 C 39.1667,262.5 78.8333,262.5 118.5,262.5C 118.5,301.833 118.5,341.167 118.5,380.5C 197.5,380.5 276.5,380.5 355.5,380.5C 357.555,430.335 380.722,466.335 425,488.5C 440.574,494.475 456.74,497.809 473.5,498.5C 474.232,556.265 456.566,606.931 420.5,650.5C 395.553,680.051 365.219,703.051 329.5,719.5C 308.675,728.161 287.008,733.661 264.5,736C 176.167,736.5 87.834,736.667 -0.5,736.5C -0.5,578.5 -0.5,420.5 -0.5,262.5 Z M 118.5,500.5 C 197.167,500.333 275.834,500.5 354.5,501C 350.625,548.421 328.125,583.254 287,605.5C 271.294,612.551 254.794,616.384 237.5,617C 197.835,617.5 158.168,617.667 118.5,617.5C 118.5,578.5 118.5,539.5 118.5,500.5 Z"/></g>
<g><path style="opacity:0.982" fill="#000000" d="M 999.5,262.5 C 999.5,302.167 999.5,341.833 999.5,381.5C 919.499,381.333 839.499,381.5 759.5,382C 704.389,386.463 667.556,414.629 649,466.5C 636.838,525.024 655.005,570.191 703.5,602C 711.018,605.171 718.518,608.338 726,611.5C 743.308,603.909 754.308,590.909 759,572.5C 760.407,547.862 760.907,523.195 760.5,498.5C 840.167,498.5 919.833,498.5 999.5,498.5C 999.5,577.833 999.5,657.167 999.5,736.5C 959.5,736.5 919.5,736.5 879.5,736.5C 880.098,711.768 879.265,687.101 877,662.5C 868.314,635.735 850.48,621.235 823.5,619C 786.488,621.316 766.155,640.982 762.5,678C 763.493,697.424 763.826,716.924 763.5,736.5C 708.513,738.184 659.513,722.184 616.5,688.5C 545.497,630.624 515.331,555.957 526,464.5C 530.526,434.38 540.526,405.713 556,378.5C 589.36,326.936 634.193,291.269 690.5,271.5C 705.694,267.532 720.36,264.698 734.5,263C 822.833,262.5 911.166,262.333 999.5,262.5 Z"/></g>

    <style>
        path { fill: #000 }

        @media (prefers-color-scheme: dark) {
            path { fill: #fff }
        }
    </style>
</svg>
